<svg id="Capa_1" data-name="Capa 1" xmlns="http://www.w3.org/2000/svg" viewBox="0 0 729.58 322"><defs><style>.cls-1{fill:#fff;}.cls-2{fill:none;}.cls-3{fill:#f2f2f2;}.cls-4{fill:#403d56;}.cls-5{opacity:0.1;isolation:isolate;}.cls-6{fill:#e94d1f;}.cls-7{fill:#2f2f41;}.cls-8{fill:#f7bdbe;}.cls-9{fill:#ec6585;}.cls-10{fill:#f6b7b9;}</style></defs><path class="cls-1" d="M855,464.5c3.22,0,3.22-5,0-5s-3.22,5,0,5Z" transform="translate(-127.83 -261.67)"/><path class="cls-2" d="M374.32,341.48" transform="translate(-127.83 -261.67)"/><path class="cls-2" d="M242.8,341.48" transform="translate(-127.83 -261.67)"/><path class="cls-3" d="M438.42,576.09,179.17,340.65l40.54-79,285,312.49Z" transform="translate(-127.83 -261.67)"/><path class="cls-3" d="M320.33,328.28a15.69,15.69,0,1,0-15.68-15.69A15.68,15.68,0,0,0,320.33,328.28Z" transform="translate(-127.83 -261.67)"/><path class="cls-4" d="M389.25,350.16a5.23,5.23,0,1,0-5.23-5.23A5.23,5.23,0,0,0,389.25,350.16Z" transform="translate(-127.83 -261.67)"/><path class="cls-4" d="M389.25,391.54A5.24,5.24,0,1,0,384,386.3,5.24,5.24,0,0,0,389.25,391.54Z" transform="translate(-127.83 -261.67)"/><path class="cls-4" d="M441.54,402a5.23,5.23,0,1,0-5.23-5.23A5.23,5.23,0,0,0,441.54,402Z" transform="translate(-127.83 -261.67)"/><path class="cls-3" d="M320.33,583.67c106.32,0,192.5-4.26,192.5-9.51s-86.18-9.52-192.5-9.52-192.5,4.26-192.5,9.52S214,583.67,320.33,583.67Z" transform="translate(-127.83 -261.67)"/><path class="cls-4" d="M432.94,419.67c-2.18-3.6-9.81-3.51-9.81-3.51-6.94,10.32-23.63-.64-23.63-.64-12.4,5.54-20-12.14-20-12.14-16.69-2.5-14.11-20-14.11-20-8.3-1.67-6-16.68-6-16.68s4.61-3.78,2.34-6.55c-1.44-1.76-1.53-6.8-1.4-10.24a114.54,114.54,0,1,0,73.86,69.38C433.67,419.94,433.22,420.12,432.94,419.67Z" transform="translate(-127.83 -261.67)"/><path class="cls-5" d="M432.94,419.67c-2.18-3.6-9.81-3.51-9.81-3.51-6.94,10.32-23.63-.64-23.63-.64-12.4,5.54-20-12.14-20-12.14-16.69-2.5-14.11-20-14.11-20-8.3-1.67-6-16.68-6-16.68s4.61-3.78,2.34-6.55c-1.44-1.76-1.53-6.8-1.4-10.24a114.54,114.54,0,1,0,73.86,69.38C433.67,419.94,433.22,420.12,432.94,419.67Z" transform="translate(-127.83 -261.67)"/><path class="cls-4" d="M426.15,419.22c-2.07-3.43-9.33-3.34-9.33-3.34-6.6,9.81-22.47-.61-22.47-.61-11.8,5.27-19-11.54-19-11.54C359.5,401.35,362,384.68,362,384.68c-7.9-1.58-5.68-15.86-5.68-15.86s4.38-3.6,2.22-6.23c-1.37-1.67-1.45-6.46-1.33-9.74a108.93,108.93,0,1,0,70.25,66C426.85,419.47,426.41,419.65,426.15,419.22Z" transform="translate(-127.83 -261.67)"/><path class="cls-6" d="M312.38,412.57s-18.79-12-36.72,0a25.93,25.93,0,0,0-10.84,16.14,35.86,35.86,0,0,0,7,30.45l40.57,51.27a12.06,12.06,0,0,0,12,4.39l.27-.06a12.15,12.15,0,0,0,4.42-2.12,12,12,0,0,0,3.22-3.69l28.22-49.58a48,48,0,0,0,6.09-29.86c-1.32-10.19-6.21-20.94-20.12-24.63C346.54,404.88,330.31,398.05,312.38,412.57Z" transform="translate(-127.83 -261.67)"/><path class="cls-5" d="M312.38,412.57s-18.79-12-36.72,0a25.93,25.93,0,0,0-10.84,16.14,35.86,35.86,0,0,0,7,30.45l40.57,51.27a12.06,12.06,0,0,0,12,4.39l.27-.06a12.15,12.15,0,0,0,4.42-2.12,12,12,0,0,0,3.22-3.69l28.22-49.58a48,48,0,0,0,6.09-29.86c-1.32-10.19-6.21-20.94-20.12-24.63C346.54,404.88,330.31,398.05,312.38,412.57Z" transform="translate(-127.83 -261.67)"/><path class="cls-6" d="M312.57,415.46s-17.62-11.22-34.45,0A24.37,24.37,0,0,0,268,430.6a33.64,33.64,0,0,0,6.6,28.56l38.06,48.1a11.29,11.29,0,0,0,11.28,4.11l.25-.06a11.34,11.34,0,0,0,7.17-5.44l26.46-46.51a45,45,0,0,0,5.72-28c-1.24-9.57-5.83-19.65-18.88-23.1C344.61,408.25,329.39,401.83,312.57,415.46Z" transform="translate(-127.83 -261.67)"/><path class="cls-5" d="M313.25,434.7s-8.57-5.46-16.75,0a11.83,11.83,0,0,0-4.95,7.37A16.34,16.34,0,0,0,294.76,456s21.95,25.86,24,25.4l.12,0c1.48-.36,16.37-25.28,16.37-25.28A21.91,21.91,0,0,0,338,442.43c-.6-4.65-2.84-9.56-9.19-11.24C328.84,431.19,321.44,428.07,313.25,434.7Z" transform="translate(-127.83 -261.67)"/><path class="cls-5" d="M259.7,475.57l2.4,4,4.81,8,1.6,5.61-3.2,4.81,4,9.62,1.6,5.61-3.2,3.21,6.41,4.81" transform="translate(-127.83 -261.67)"/><path class="cls-5" d="M377.45,440.31v6.41l-4,10.42-2.4,5.61,4,7.21,1.6,4.81,6.41,2.4,2.4,4v9.62" transform="translate(-127.83 -261.67)"/><path class="cls-5" d="M418.31,446.72l-6.41,4s-3.21,1.6-3.21,2.4v6.41" transform="translate(-127.83 -261.67)"/><path class="cls-5" d="M389.47,424.28l1.6,8-1.6,5.61" transform="translate(-127.83 -261.67)"/><path class="cls-5" d="M395.88,496.41l-4.81,7.21-5.61,4.81v3.21l3.21,4v4.81l-2.41,4.8" transform="translate(-127.83 -261.67)"/><path class="cls-5" d="M350.22,360.16h-8l-6.41,5.61-10.41,5.61-4.81,4V377l-10.41,5.61L307,388.21" transform="translate(-127.83 -261.67)"/><path class="cls-5" d="M263.71,373.78l-7.21,14.43-2.41,5.61-5.6,7.21s-4,7.22-4.81,8-6.41,2.4-6.41,2.4l8,8" transform="translate(-127.83 -261.67)"/><path class="cls-5" d="M231.66,429.09l-1.6,10.41,1.6,6.42v11.22L226.86,478l4.8,5.61,5.61,7.21" transform="translate(-127.83 -261.67)"/><path class="cls-5" d="M243.68,433.89l4.81,2.41,3.2,10.42,6.41-1.6,3.2,5.61" transform="translate(-127.83 -261.67)"/><path class="cls-5" d="M331.79,538.09l12.82-1.61,5.61-5.61h8" transform="translate(-127.83 -261.67)"/><path class="cls-5" d="M254.09,521.26l4.81,5.61,8,2.4,5.61,1.6,1.6,8.82" transform="translate(-127.83 -261.67)"/><path class="cls-5" d="M348.62,494l5.6-4,2.41-6.41,4.8-.8,2.41-8" transform="translate(-127.83 -261.67)"/><path class="cls-7" d="M204.76,292.62h13.41a16,16,0,0,1,16,16V338H188.79v-29.4a16,16,0,0,1,16-16Z" transform="translate(-127.83 -261.67)"/><path class="cls-8" d="M218.53,544.71s-1.43,9-3.81,10.46,12.36,4.76,12.36,4.76l2.38-14.27Z" transform="translate(-127.83 -261.67)"/><path class="cls-7" d="M236.11,441.51l5.23,6.18L239,469.09l-1.9,42.33s3.81,36.62,0,37.57-20.91.47-20.44-1.9,1-4.28,1.91-7.61-.95-15.22-.95-15.22L220,510.94,211.4,453.4Z" transform="translate(-127.83 -261.67)"/><path class="cls-7" d="M219,553.74s-5.23-1-5.7,0-9.51,10.94-10.93,10.94-11.89,9.51-1,10,29-8.09,29-8.09-2.66-12.1-2.52-11.52S219,556.12,219,553.74Z" transform="translate(-127.83 -261.67)"/><path class="cls-8" d="M213.3,531.87s13.31,14.74,13.78,16.17,7.61,0,7.61,0l2.85-9.51-2.38-3.33-13.31-10.94Z" transform="translate(-127.83 -261.67)"/><path class="cls-7" d="M232.31,542.81l-6.89,6.49s8.79,13.48,8.79,14.91.48,13.31,5.23,11.41,5.23-20.92,5.23-20.92-.48-19.5-3.33-20.93-9.1-1-9.1-1S236.11,542.33,232.31,542.81Z" transform="translate(-127.83 -261.67)"/><path class="cls-7" d="M192.86,399.18s-2.38,7.61-2.85,9.51-3.33,7.14-3.33,15.22.95,17.6,0,18.55-16.16,54.22-9.51,59.92,28.52,24.73,30,27.11,1.9,8.08,4.75,7.13,13.79-10.46,14.26-12.36S220,519,220,519s-13.31-19.5-16.63-19-2.86-2.37-2.38-3.8,1.43-2.38,0-2.38-.48-3.8,0-5.7,11.41-27.59,11.41-27.59l29-12.84s-1.42-34.72-11.88-44.23l-2.38-5.7S200.46,395.85,192.86,399.18Z" transform="translate(-127.83 -261.67)"/><path class="cls-8" d="M204.74,324s2.38,16.65-3.33,17.6-10.45.47-10.45.95,14.26,15.22,14.26,15.22l13.31-.95L230.41,344s-10.93-1.91-10.93-8.56S219,324,219,324Z" transform="translate(-127.83 -261.67)"/><path class="cls-5" d="M204.74,324s2.38,16.65-3.33,17.6-10.45.47-10.45.95,14.26,15.22,14.26,15.22l13.31-.95L230.41,344s-10.93-1.91-10.93-8.56S219,324,219,324Z" transform="translate(-127.83 -261.67)"/><path class="cls-8" d="M212.11,330.94a14.75,14.75,0,1,0-14.74-14.74A14.73,14.73,0,0,0,212.11,330.94Z" transform="translate(-127.83 -261.67)"/><path class="cls-9" d="M199,340.21s-18.54,2.38-20,8.56,9.5,44.71,10.93,48a10.56,10.56,0,0,1,1,5.7,18.83,18.83,0,0,1,15.21-3.33c9,1.91,21.86.95,21.86.95s4.28-17.59,5.23-19.49S238,368.27,238,365.42s5.71-14.74,5.71-14.74-2.85-8.57-13.31-8.09c0,0-4.56-2-5.85-.55s-8.41,8.16-17.44,5.31S199,340.21,199,340.21Z" transform="translate(-127.83 -261.67)"/><path class="cls-9" d="M184.3,348.3h-5.22l-2.86,37.57s10.46,2.85,11.89.95S184.3,348.3,184.3,348.3Z" transform="translate(-127.83 -261.67)"/><path class="cls-9" d="M234.69,348.3l9,2.38s6.65,24.25,7.13,24.72,1,3.33,1,3.33,0,.48.95,1.91,2.37.47,1.42,2.37-2.37.95-1.42,2.86.47,7.13.47,7.13-2.37-9-10.93-6.66l-5.7-25.68Z" transform="translate(-127.83 -261.67)"/><path class="cls-7" d="M223.61,312.61H200.72l-5.18-11.92h32Z" transform="translate(-127.83 -261.67)"/><path class="cls-10" d="M197.72,321.33c.61-.17.72-1.64.25-3.27s-1.35-2.81-2-2.64-.72,1.65-.25,3.28S197.1,321.51,197.72,321.33Z" transform="translate(-127.83 -261.67)"/><path class="cls-10" d="M228.69,318.7c.47-1.63.36-3.1-.25-3.28s-1.49,1-2,2.64-.36,3.1.26,3.27S228.22,320.33,228.69,318.7Z" transform="translate(-127.83 -261.67)"/><path class="cls-4" d="M224.8,381.55a8.56,8.56,0,1,0-8.56-8.56A8.55,8.55,0,0,0,224.8,381.55Z" transform="translate(-127.83 -261.67)"/><path class="cls-5" d="M224.8,381.55a8.56,8.56,0,1,0-8.56-8.56A8.55,8.55,0,0,0,224.8,381.55Z" transform="translate(-127.83 -261.67)"/><path class="cls-4" d="M224.8,380.7a7.71,7.71,0,1,0-7.71-7.71A7.71,7.71,0,0,0,224.8,380.7Z" transform="translate(-127.83 -261.67)"/><path class="cls-5" d="M224.46,368.63a3.71,3.71,0,0,0-3.84,0,2.69,2.69,0,0,0-1.13,1.69,3.62,3.62,0,0,0,0,1.67,3.86,3.86,0,0,0,.73,1.51l4.24,5.36a1.34,1.34,0,0,0,.56.41,1.29,1.29,0,0,0,.7.05h0a1.39,1.39,0,0,0,.46-.22,1.23,1.23,0,0,0,.33-.39l3-5.18a5,5,0,0,0,.64-3.12,2.77,2.77,0,0,0-.63-1.63,2.7,2.7,0,0,0-1.47-.94A3.63,3.63,0,0,0,224.46,368.63Z" transform="translate(-127.83 -261.67)"/><path class="cls-6" d="M224.48,368.93a3.48,3.48,0,0,0-3.6,0,2.56,2.56,0,0,0-1.07,1.58,3.61,3.61,0,0,0,0,1.57,3.53,3.53,0,0,0,.68,1.42l4,5a1.27,1.27,0,0,0,.53.38,1.2,1.2,0,0,0,.65,0h0a1.24,1.24,0,0,0,.75-.57l2.76-4.86a4.76,4.76,0,0,0,.6-2.93,2.62,2.62,0,0,0-2-2.41A3.43,3.43,0,0,0,224.48,368.93Z" transform="translate(-127.83 -261.67)"/><path class="cls-5" d="M224.55,370.94a1.71,1.71,0,0,0-.88-.24,1.65,1.65,0,0,0-.87.24,1.25,1.25,0,0,0-.52.77,1.67,1.67,0,0,0,0,.77,1.72,1.72,0,0,0,.33.68,23.86,23.86,0,0,0,2.51,2.66h0c.15,0,1.71-2.65,1.71-2.65a2.28,2.28,0,0,0,.29-1.42,1.39,1.39,0,0,0-.29-.75,1.3,1.3,0,0,0-.67-.43,1.71,1.71,0,0,0-.87,0A1.6,1.6,0,0,0,224.55,370.94Z" transform="translate(-127.83 -261.67)"/><path class="cls-4" d="M217.19,386.3a8.56,8.56,0,1,0-8.55-8.56A8.56,8.56,0,0,0,217.19,386.3Z" transform="translate(-127.83 -261.67)"/><path class="cls-5" d="M217.19,386.3a8.56,8.56,0,1,0-8.55-8.56A8.56,8.56,0,0,0,217.19,386.3Z" transform="translate(-127.83 -261.67)"/><path class="cls-4" d="M217.19,385.46a7.72,7.72,0,1,0-7.71-7.72A7.72,7.72,0,0,0,217.19,385.46Z" transform="translate(-127.83 -261.67)"/><path class="cls-5" d="M216.85,373.38a3.7,3.7,0,0,0-3.84,0,2.75,2.75,0,0,0-1.13,1.69,3.81,3.81,0,0,0,0,1.68,3.71,3.71,0,0,0,.74,1.5l4.24,5.36a1.21,1.21,0,0,0,.56.41,1.25,1.25,0,0,0,.69.05h0a1.37,1.37,0,0,0,.8-.61l2.95-5.18a5.1,5.1,0,0,0,.64-3.13,2.89,2.89,0,0,0-.63-1.63,2.85,2.85,0,0,0-1.48-.94A3.66,3.66,0,0,0,216.85,373.38Z" transform="translate(-127.83 -261.67)"/><path class="cls-6" d="M216.87,373.69a3.45,3.45,0,0,0-3.6,0,2.52,2.52,0,0,0-1.06,1.58,3.47,3.47,0,0,0,0,1.57,3.39,3.39,0,0,0,.69,1.41l4,5a1.12,1.12,0,0,0,.52.39,1.2,1.2,0,0,0,.65,0h0a1.08,1.08,0,0,0,.43-.21,1.22,1.22,0,0,0,.32-.36l2.77-4.86a4.7,4.7,0,0,0,.59-2.93,2.53,2.53,0,0,0-.59-1.53,2.6,2.6,0,0,0-1.38-.89A3.42,3.42,0,0,0,216.87,373.69Z" transform="translate(-127.83 -261.67)"/><path class="cls-5" d="M216.94,375.7a1.66,1.66,0,0,0-.87-.25,1.72,1.72,0,0,0-.88.25,1.26,1.26,0,0,0-.52.77,1.77,1.77,0,0,0,0,.76,1.64,1.64,0,0,0,.33.69,22.9,22.9,0,0,0,2.51,2.65h0a29.3,29.3,0,0,0,1.71-2.64,2.28,2.28,0,0,0,.29-1.42,1.26,1.26,0,0,0-.28-.75,1.33,1.33,0,0,0-.68-.43,1.68,1.68,0,0,0-.86,0A1.75,1.75,0,0,0,216.94,375.7Z" transform="translate(-127.83 -261.67)"/><path class="cls-4" d="M210.67,356.34c-.21-.34-.94-.33-.94-.33-.66,1-2.25-.06-2.25-.06-1.19.53-1.91-1.16-1.91-1.16a1.64,1.64,0,0,1-1.35-1.91c-.79-.16-.57-1.6-.57-1.6s.44-.36.23-.62a1.94,1.94,0,0,1-.14-1,10.94,10.94,0,1,0,7,6.62C210.74,356.37,210.69,356.39,210.67,356.34Z" transform="translate(-127.83 -261.67)"/><path class="cls-5" d="M210.67,356.34c-.21-.34-.94-.33-.94-.33-.66,1-2.25-.06-2.25-.06-1.19.53-1.91-1.16-1.91-1.16a1.64,1.64,0,0,1-1.35-1.91c-.79-.16-.57-1.6-.57-1.6s.44-.36.23-.62a1.94,1.94,0,0,1-.14-1,10.94,10.94,0,1,0,7,6.62C210.74,356.37,210.69,356.39,210.67,356.34Z" transform="translate(-127.83 -261.67)"/><path class="cls-4" d="M210,356.3c-.2-.33-.89-.32-.89-.32-.63.94-2.15-.06-2.15-.06-1.12.51-1.81-1.1-1.81-1.1a1.56,1.56,0,0,1-1.28-1.82c-.75-.15-.54-1.51-.54-1.51s.42-.34.21-.59a2,2,0,0,1-.13-.93,10.39,10.39,0,1,0,6.71,6.29C210.09,356.32,210,356.34,210,356.3Z" transform="translate(-127.83 -261.67)"/><path class="cls-6" d="M199.16,355.67a3.35,3.35,0,0,0-3.5,0,2.45,2.45,0,0,0-1,1.54,3.59,3.59,0,0,0,0,1.53,3.51,3.51,0,0,0,.67,1.37l3.88,4.89a1.2,1.2,0,0,0,.51.38,1.13,1.13,0,0,0,.63,0h0a1.35,1.35,0,0,0,.42-.2,1.19,1.19,0,0,0,.31-.36l2.69-4.73a4.57,4.57,0,0,0,.58-2.85,2.55,2.55,0,0,0-1.92-2.35A3.33,3.33,0,0,0,199.16,355.67Z" transform="translate(-127.83 -261.67)"/><path class="cls-5" d="M199.16,355.67a3.35,3.35,0,0,0-3.5,0,2.45,2.45,0,0,0-1,1.54,3.59,3.59,0,0,0,0,1.53,3.51,3.51,0,0,0,.67,1.37l3.88,4.89a1.2,1.2,0,0,0,.51.38,1.13,1.13,0,0,0,.63,0h0a1.35,1.35,0,0,0,.42-.2,1.19,1.19,0,0,0,.31-.36l2.69-4.73a4.57,4.57,0,0,0,.58-2.85,2.55,2.55,0,0,0-1.92-2.35A3.33,3.33,0,0,0,199.16,355.67Z" transform="translate(-127.83 -261.67)"/><path class="cls-6" d="M199.18,355.94a3.18,3.18,0,0,0-3.29,0,2.36,2.36,0,0,0-1,1.45,3.14,3.14,0,0,0,0,1.43,3.31,3.31,0,0,0,.63,1.29l3.63,4.59a1.08,1.08,0,0,0,.49.35,1,1,0,0,0,.59,0h0a1.14,1.14,0,0,0,.4-.19,1,1,0,0,0,.29-.33l2.52-4.44a4.31,4.31,0,0,0,.55-2.67,2.48,2.48,0,0,0-.54-1.4,2.4,2.4,0,0,0-1.26-.81A3.13,3.13,0,0,0,199.18,355.94Z" transform="translate(-127.83 -261.67)"/><path class="cls-5" d="M199.24,357.78a1.49,1.49,0,0,0-1.59,0,1.09,1.09,0,0,0-.48.7,1.65,1.65,0,0,0,0,.7,1.69,1.69,0,0,0,.31.63,21.44,21.44,0,0,0,2.29,2.42h0a26.76,26.76,0,0,0,1.56-2.41,2.14,2.14,0,0,0,.27-1.31,1.24,1.24,0,0,0-.26-.68,1.2,1.2,0,0,0-.62-.39,1.51,1.51,0,0,0-.79,0A1.49,1.49,0,0,0,199.24,357.78Z" transform="translate(-127.83 -261.67)"/><path class="cls-5" d="M194.13,361.68l.23.38.46.76.15.54-.3.46.38.92.15.53-.3.31.61.46" transform="translate(-127.83 -261.67)"/><path class="cls-5" d="M205.37,358.31v.61l-.38,1-.23.53.38.69.16.46.61.23.23.38v.92" transform="translate(-127.83 -261.67)"/><path class="cls-5" d="M209.27,358.92l-.61.39s-.31.15-.31.23v.61" transform="translate(-127.83 -261.67)"/><path class="cls-5" d="M206.52,356.78l.15.77-.15.53" transform="translate(-127.83 -261.67)"/><path class="cls-5" d="M207.13,363.67l-.46.68-.53.46v.31l.3.38V366l-.23.46" transform="translate(-127.83 -261.67)"/><path class="cls-5" d="M202.77,350.66H202l-.61.54-1,.53-.46.39v.15l-1,.53-.31.54" transform="translate(-127.83 -261.67)"/><path class="cls-5" d="M194.52,352l-.69,1.38-.23.54-.54.68s-.38.69-.46.77a3.19,3.19,0,0,1-.61.23l.77.76" transform="translate(-127.83 -261.67)"/><path class="cls-5" d="M191.46,357.24l-.15,1,.15.61v1.07l-.46,2,.46.53.53.69" transform="translate(-127.83 -261.67)"/><path class="cls-5" d="M192.61,357.7l.45.23.31,1,.61-.15.31.54" transform="translate(-127.83 -261.67)"/><path class="cls-5" d="M201,367.64l1.23-.15.53-.53h.77" transform="translate(-127.83 -261.67)"/><path class="cls-5" d="M193.6,366l.46.53.76.23.54.16.15.84" transform="translate(-127.83 -261.67)"/><path class="cls-5" d="M202.62,363.44l.54-.39.22-.61.46-.07.23-.77" transform="translate(-127.83 -261.67)"/><path class="cls-9" d="M177.65,382.06l-1.43,3.81s-.95,12.36,4.76,11.89,9-7.61,9-7.61-3.33-9-7.13-8.09S177.65,382.06,177.65,382.06Z" transform="translate(-127.83 -261.67)"/><path class="cls-8" d="M182.4,384.44s-2.85,8.56.48,8.56,9.5-5.23,10-9.51,9-20.45,2.85-19-9,13.31-9,13.31Z" transform="translate(-127.83 -261.67)"/><path class="cls-8" d="M250.37,384.92l3,5s1.31,9.3-5.34,9.3-16.17-9-16.17-9-4.75-1.9-7.6-1.43-18.54,0-11.88-8.08,18.06,0,18.06,0l11.88,5.7,6.18-3.33Z" transform="translate(-127.83 -261.67)"/><path class="cls-9" d="M246.33,378.5l-4.75,7.6s10.93,1.43,11.88,3.81-4.28-12.37-4.28-12.37Z" transform="translate(-127.83 -261.67)"/></svg>